<?xml version="1.0" standalone="no"?>
<!DOCTYPE svg PUBLIC "-//W3C//DTD SVG 20010904//EN"
 "http://www.w3.org/TR/2001/REC-SVG-20010904/DTD/svg10.dtd">
<svg version="1.0" xmlns="http://www.w3.org/2000/svg"
 width="246.000000pt" height="246.000000pt" viewBox="0 0 246.000000 246.000000"
 preserveAspectRatio="xMidYMid meet">

<g transform="translate(0.000000,246.000000) scale(0.100000,-0.100000)"
fill="#fff" stroke="none">
<path d="M1025 2444 c-253 -45 -474 -160 -656 -343 -143 -143 -237 -294 -299
-479 -25 -75 -60 -237 -60 -278 0 -12 93 -14 565 -14 l565 0 0 565 c0 532 -1
565 -17 564 -10 0 -54 -7 -98 -15z m85 -554 l0 -530 -531 0 -532 0 7 61 c10
86 50 219 97 318 139 298 395 526 708 631 78 26 174 48 219 49 l32 1 0 -530z"/>
<path d="M1330 1896 l0 -566 565 0 c472 0 565 2 565 14 0 41 -35 203 -60 278
-104 311 -337 577 -625 714 -136 64 -245 97 -397 119 l-48 6 0 -565z m150 509
c367 -77 680 -325 839 -666 47 -99 87 -232 97 -318 l7 -61 -532 0 -531 0 0
530 0 530 24 0 c14 0 57 -7 96 -15z"/>
<path d="M10 1126 c0 -41 35 -203 60 -278 62 -185 156 -336 299 -479 201 -201
438 -317 724 -354 l47 -6 0 565 0 566 -565 0 c-472 0 -565 -2 -565 -14z m1100
-547 l0 -532 -53 6 c-255 30 -545 188 -720 391 -150 175 -261 411 -283 605
l-7 61 532 0 531 0 0 -531z"/>
<path d="M1330 575 c0 -472 2 -565 14 -565 7 0 53 7 102 15 506 89 910 493
999 999 8 49 15 95 15 102 0 12 -93 14 -565 14 l-565 0 0 -565z m1086 474
c-10 -86 -50 -219 -97 -318 -133 -284 -374 -507 -669 -618 -71 -27 -219 -62
-262 -63 l-28 0 0 530 0 530 531 0 532 0 -7 -61z"/>
</g>
</svg>
