<?xml version="1.0" standalone="no"?>
<!DOCTYPE svg PUBLIC "-//W3C//DTD SVG 20010904//EN" "http://www.w3.org/TR/2001/REC-SVG-20010904/DTD/svg10.dtd">
<svg version="1.0" xmlns="http://www.w3.org/2000/svg"
 width="358.000000pt" height="354.000000pt" viewBox="0 0 358.000000 354.000000"
 preserveAspectRatio="xMidYMid meet">

<g transform="translate(0.000000,354.000000) scale(0.100000,-0.100000)"
fill="#fff" stroke="#000" stroke-width="3">
  <path d="M1485 3533 c-51 -7 -186 -43 -280 -75 -167 -56 -351 -155 -505 -272
  -104 -78 -282 -265 -365 -383 -86 -122 -189 -323 -234 -458 -124 -374 -121
  -780 9 -1165 52 -153 90 -178 188 -124 61 34 288 166 380 221 40 23 75 43 77
  43 3 0 34 18 70 40 36 22 68 40 70 40 3 0 22 11 43 23 35 23 333 195 417 243
  22 12 86 49 143 83 57 34 107 61 112 61 4 0 20 14 34 31 l26 31 0 799 c0 848
  0 845 -45 863 -18 6 -90 6 -140 -1z m15 -882 l0 -709 -77 -44 c-43 -25 -170
  -98 -283 -163 -113 -65 -218 -126 -235 -135 -16 -10 -100 -58 -185 -107 -85
  -49 -219 -127 -296 -171 -78 -45 -146 -82 -152 -82 -5 0 -12 10 -15 22 -3 13
  -14 55 -25 93 -43 150 -55 263 -49 473 6 213 19 289 77 463 144 429 455 770
  880 963 47 21 99 43 115 48 77 25 202 57 223 57 l22 1 0 -709z"/>
  <path d="M1936 3517 l-26 -26 0 -809 c0 -797 0 -810 20 -835 11 -14 33 -32 48
  -40 15 -7 72 -40 127 -72 55 -32 120 -69 145 -83 25 -14 62 -36 82 -49 21 -12
  40 -23 43 -23 3 0 24 -12 48 -27 35 -22 265 -155 407 -235 19 -11 76 -44 125
  -73 413 -242 411 -241 458 -186 24 29 94 230 116 336 70 329 45 694 -66 990
  -167 447 -488 798 -913 1002 -160 76 -372 139 -507 149 -78 7 -82 6 -107 -19z
  m260 -178 c88 -23 140 -39 199 -64 503 -212 855 -632 975 -1165 27 -119 38
  -391 21 -530 -16 -139 -69 -340 -88 -340 -5 0 -67 34 -138 76 -72 42 -148 86
  -170 98 -22 13 -128 74 -235 136 -107 62 -211 121 -230 132 -19 11 -82 48
  -140 81 -58 33 -114 66 -125 72 -11 6 -57 32 -102 59 l-83 48 0 709 c0 678 1
  709 18 709 10 0 54 -9 98 -21z"/>
  <path d="M1610 1533 c-80 -47 -163 -95 -185 -107 -22 -13 -85 -49 -140 -81
  -174 -100 -429 -247 -465 -268 -19 -10 -87 -50 -150 -86 -63 -37 -153 -89
  -199 -116 -46 -26 -92 -57 -102 -68 -47 -50 -12 -112 158 -284 187 -187 369
  -307 618 -406 307 -122 680 -150 1040 -78 83 16 254 76 358 124 208 98 353
  201 526 377 149 152 184 214 148 261 -13 16 -61 48 -137 91 -25 14 -133 76
  -240 138 -107 62 -210 121 -228 132 -37 21 -110 62 -292 168 -69 40 -141 81
  -160 92 -19 11 -55 32 -80 46 -25 14 -93 54 -153 89 -75 44 -117 63 -140 62
  -21 0 -81 -29 -177 -86z m243 -127 c34 -19 114 -64 177 -101 63 -37 159 -93
  213 -124 54 -31 110 -63 125 -72 15 -9 54 -31 87 -49 33 -18 88 -51 123 -72
  34 -21 65 -38 67 -38 3 0 22 -11 43 -23 20 -13 102 -61 182 -107 80 -46 147
  -84 149 -86 7 -6 -133 -146 -204 -203 -229 -185 -441 -282 -755 -347 -102 -21
  -417 -24 -520 -5 -285 53 -492 141 -715 305 -80 59 -265 231 -265 245 0 5 209
  130 234 140 6 2 50 28 99 58 48 29 90 53 93 53 2 0 21 11 42 23 20 13 57 35
  82 49 94 52 336 192 370 213 19 12 60 36 90 52 30 17 89 51 130 76 41 25 79
  46 83 46 5 1 37 -14 70 -33z"/>
</g>
</svg>
